<svg xmlns="http://www.w3.org/2000/svg" viewBox="0 0 100 100" width="100%" height="100%" fill="none">
  <defs>
    <linearGradient id="logoGrad" x1="0%" y1="0%" x2="100%" y2="100%">
      <stop offset="0%" stopColor="#4f63ff" />
      <stop offset="50%" stopColor="#805ad5" />
      <stop offset="100%" stopColor="#9f7aea" />
    </linearGradient>
    <linearGradient id="accentGrad" x1="100%" y1="0%" x2="0%" y2="100%">
      <stop offset="0%" stopColor="#38bdf8" />
      <stop offset="100%" stopColor="#818cf8" />
    </linearGradient>
  </defs>

  {/* Outer Orbit Rings */}
  <circle cx="50" cy="50" r="42" stroke="url(#logoGrad)" strokeWidth="1.5" strokeDasharray="6 12" opacity="0.3" />
  <circle cx="50" cy="50" r="46" stroke="url(#accentGrad)" strokeWidth="1" strokeDasharray="4 8" opacity="0.2" />

  {/* Neural nodes connecting cap */}
  <line x1="50" y1="22" x2="22" y2="40" stroke="url(#logoGrad)" strokeWidth="1.5" opacity="0.6" strokeDasharray="2 2" />
  <line x1="50" y1="22" x2="78" y2="40" stroke="url(#logoGrad)" strokeWidth="1.5" opacity="0.6" strokeDasharray="2 2" />
  <line x1="22" y1="40" x2="50" y2="58" stroke="url(#logoGrad)" strokeWidth="1.5" opacity="0.6" strokeDasharray="2 2" />
  <line x1="78" y1="40" x2="50" y2="58" stroke="url(#logoGrad)" strokeWidth="1.5" opacity="0.6" strokeDasharray="2 2" />
  <line x1="50" y1="58" x2="50" y2="76" stroke="url(#accentGrad)" strokeWidth="2" opacity="0.8" />

  {/* Neural Network Nodes */}
  <circle cx="50" cy="22" r="3.5" fill="#38bdf8" />
  <circle cx="22" cy="40" r="3.5" fill="#818cf8" />
  <circle cx="78" cy="40" r="3.5" fill="#818cf8" />
  <circle cx="50" cy="58" r="4" fill="#a78bfa" />
  <circle cx="50" cy="76" r="3" fill="#38bdf8" />

  {/* Core Graduation Cap Shape */}
  <path d="M50 25L82 42L50 59L18 42Z" fill="url(#logoGrad)" fillOpacity="0.85" stroke="url(#accentGrad)" strokeWidth="1.5" />

  {/* Tassel */}
  <path d="M50 42L32 50V68" stroke="#38bdf8" strokeWidth="1.5" strokeLinecap="round" />
  <circle cx="32" cy="68" r="2" fill="#38bdf8" />
</svg>
